HIERARCHY
ROOT hip
{
  OFFSET 0 90.174 2.4664
  CHANNELS 6 Xposition Yposition Zposition Zrotation Xrotation Yrotation
  JOINT abdomen
  {
    OFFSET 0 -1.186 -1.5018
    CHANNELS 6 Xposition Yposition Zposition Zrotation Xrotation Yrotation
    JOINT abdomen2
    {
      OFFSET 0 9.964 0.2134
      CHANNELS 6 Xposition Yposition Zposition Zrotation Xrotation Yrotation
      JOINT chest
      {
        OFFSET 0 13.134 -3.2573
        CHANNELS 6 Xposition Yposition Zposition Zrotation Xrotation Yrotation
        JOINT neck
        {
          OFFSET 0 20.686 -1.6905
          CHANNELS 6 Xposition Yposition Zposition Zrotation Xrotation Yrotation
          JOINT head
          {
            OFFSET 0 7.238 -0.1237
            CHANNELS 6 Xposition Yposition Zposition Zrotation Xrotation Yrotation
            End Site
            {
              OFFSET 0 0 0
            }
          }
        }
        JOINT lCollar
        {
          OFFSET 1.7069 20.075 5.0056
          CHANNELS 6 Xposition Yposition Zposition Zrotation Xrotation Yrotation
          JOINT lShldr
          {
            OFFSET 13.6458 -0.047 -4.849
            CHANNELS 6 Xposition Yposition Zposition Zrotation Xrotation Yrotation
            JOINT lForeArm
            {
              OFFSET 28.3255 -0.9759 2.2888
              CHANNELS 6 Xposition Yposition Zposition Zrotation Xrotation Yrotation
              JOINT lHand
              {
                OFFSET 22.1583 -0.53 10.8316
                CHANNELS 6 Xposition Yposition Zposition Zrotation Xrotation Yrotation
                JOINT lThumb1
                {
                  OFFSET 0.786 0.112 2.5817
                  CHANNELS 6 Xposition Yposition Zposition Zrotation Xrotation Yrotation
                  JOINT lThumb2
                  {
                    OFFSET 0.3601 -0.878 4.2331
                    CHANNELS 6 Xposition Yposition Zposition Zrotation Xrotation Yrotation
                    JOINT lThumb2_End
                    {
                      OFFSET 1.8127 -1.216 2.2227
                      CHANNELS 6 Xposition Yposition Zposition Zrotation Xrotation Yrotation
                      End Site
                      {
                        OFFSET 0.0181 -0.0122 0.0222
                      }
                    }
                  }
                }
                JOINT lCarpal1
                {
                  OFFSET 0.9571 1.114 1.7695
                  CHANNELS 6 Xposition Yposition Zposition Zrotation Xrotation Yrotation
                  JOINT lIndex1
                  {
                    OFFSET 4.1246 0.487 4.1451
                    CHANNELS 6 Xposition Yposition Zposition Zrotation Xrotation Yrotation
                    JOINT lIndex2
                    {
                      OFFSET 3.4052 -1.454 2.7682
                      CHANNELS 6 Xposition Yposition Zposition Zrotation Xrotation Yrotation
                      JOINT lIndex2_End
                      {
                        OFFSET 1.4531 -1.795 1.2713
                        CHANNELS 6 Xposition Yposition Zposition Zrotation Xrotation Yrotation
                        End Site
                        {
                          OFFSET 0.0145 -0.0179 0.0127
                        }
                      }
                    }
                  }
                  JOINT lMid1
                  {
                    OFFSET 5.6954 0.21 2.1184
                    CHANNELS 6 Xposition Yposition Zposition Zrotation Xrotation Yrotation
                    JOINT lMid2
                    {
                      OFFSET 3.9766 -1.54 2.3863
                      CHANNELS 6 Xposition Yposition Zposition Zrotation Xrotation Yrotation
                      JOINT lMid2_End
                      {
                        OFFSET 1.4042 -1.926 1.125
                        CHANNELS 6 Xposition Yposition Zposition Zrotation Xrotation Yrotation
                        End Site
                        {
                          OFFSET 0.014 -0.0193 0.0113
                        }
                      }
                    }
                  }
                }
                JOINT lCarpal2
                {
                  OFFSET 2.0956 0.66 -0.3894
                  CHANNELS 6 Xposition Yposition Zposition Zrotation Xrotation Yrotation
                  JOINT lRing1
                  {
                    OFFSET 5.0395 -0.09 2.4971
                    CHANNELS 6 Xposition Yposition Zposition Zrotation Xrotation Yrotation
                    JOINT lRing2
                    {
                      OFFSET 3.7921 -1.552 1.4806
                      CHANNELS 6 Xposition Yposition Zposition Zrotation Xrotation Yrotation
                      JOINT lRing2_End
                      {
                        OFFSET 1.4655 -1.808 0.9609
                        CHANNELS 6 Xposition Yposition Zposition Zrotation Xrotation Yrotation
                        End Site
                        {
                          OFFSET 0.0147 -0.0181 0.0096
                        }
                      }
                    }
                  }
                  JOINT lPinky1
                  {
                    OFFSET 4.9141 -1.269 0.3591
                    CHANNELS 6 Xposition Yposition Zposition Zrotation Xrotation Yrotation
                    JOINT lPinky2
                    {
                      OFFSET 3.1477 -1.685 0.8462
                      CHANNELS 6 Xposition Yposition Zposition Zrotation Xrotation Yrotation
                      JOINT lPinky2_End
                      {
                        OFFSET 0.8055 -1.585 0.7955
                        CHANNELS 6 Xposition Yposition Zposition Zrotation Xrotation Yrotation
                        End Site
                        {
                          OFFSET 0.0081 -0.0158 0.008
                        }
                      }
                    }
                  }
                }
              }
            }
          }
        }
        JOINT rCollar
        {
          OFFSET -1.7069 20.075 5.0056
          CHANNELS 6 Xposition Yposition Zposition Zrotation Xrotation Yrotation
          JOINT rShldr
          {
            OFFSET -13.6458 -0.047 -4.849
            CHANNELS 6 Xposition Yposition Zposition Zrotation Xrotation Yrotation
            JOINT rForeArm
            {
              OFFSET -28.3255 -0.9759 2.2888
              CHANNELS 6 Xposition Yposition Zposition Zrotation Xrotation Yrotation
              JOINT rHand
              {
                OFFSET -22.1583 -0.53 10.8316
                CHANNELS 6 Xposition Yposition Zposition Zrotation Xrotation Yrotation
                JOINT rThumb1
                {
                  OFFSET -0.786 0.112 2.5817
                  CHANNELS 6 Xposition Yposition Zposition Zrotation Xrotation Yrotation
                  JOINT rThumb2
                  {
                    OFFSET -0.3601 -0.878 4.2331
                    CHANNELS 6 Xposition Yposition Zposition Zrotation Xrotation Yrotation
                    JOINT rThumb2_End
                    {
                      OFFSET -1.8127 -1.216 2.2227
                      CHANNELS 6 Xposition Yposition Zposition Zrotation Xrotation Yrotation
                      End Site
                      {
                        OFFSET -0.0181 -0.0122 0.0222
                      }
                    }
                  }
                }
                JOINT rCarpal1
                {
                  OFFSET -0.9571 1.114 1.7695
                  CHANNELS 6 Xposition Yposition Zposition Zrotation Xrotation Yrotation
                  JOINT rIndex1
                  {
                    OFFSET -4.1246 0.487 4.1451
                    CHANNELS 6 Xposition Yposition Zposition Zrotation Xrotation Yrotation
                    JOINT rIndex2
                    {
                      OFFSET -3.4052 -1.454 2.7682
                      CHANNELS 6 Xposition Yposition Zposition Zrotation Xrotation Yrotation
                      JOINT rIndex2_End
                      {
                        OFFSET -1.4531 -1.795 1.2713
                        CHANNELS 6 Xposition Yposition Zposition Zrotation Xrotation Yrotation
                        End Site
                        {
                          OFFSET -0.0145 -0.018 0.0127
                        }
                      }
                    }
                  }
                  JOINT rMid1
                  {
                    OFFSET -5.6954 0.21 2.1184
                    CHANNELS 6 Xposition Yposition Zposition Zrotation Xrotation Yrotation
                    JOINT rMid2
                    {
                      OFFSET -3.9766 -1.54 2.3863
                      CHANNELS 6 Xposition Yposition Zposition Zrotation Xrotation Yrotation
                      JOINT rMid2_End
                      {
                        OFFSET -1.4042 -1.926 1.125
                        CHANNELS 6 Xposition Yposition Zposition Zrotation Xrotation Yrotation
                        End Site
                        {
                          OFFSET -0.014 -0.0193 0.0113
                        }
                      }
                    }
                  }
                }
                JOINT rCarpal2
                {
                  OFFSET -2.0956 0.66 -0.3894
                  CHANNELS 6 Xposition Yposition Zposition Zrotation Xrotation Yrotation
                  JOINT rRing1
                  {
                    OFFSET -5.0395 -0.09 2.4971
                    CHANNELS 6 Xposition Yposition Zposition Zrotation Xrotation Yrotation
                    JOINT rRing2
                    {
                      OFFSET -3.7921 -1.552 1.4806
                      CHANNELS 6 Xposition Yposition Zposition Zrotation Xrotation Yrotation
                      JOINT rRing2_End
                      {
                        OFFSET -1.4655 -1.808 0.9609
                        CHANNELS 6 Xposition Yposition Zposition Zrotation Xrotation Yrotation
                        End Site
                        {
                          OFFSET -0.0147 -0.0181 0.0096
                        }
                      }
                    }
                  }
                  JOINT rPinky1
                  {
                    OFFSET -4.9141 -1.269 0.3592
                    CHANNELS 6 Xposition Yposition Zposition Zrotation Xrotation Yrotation
                    JOINT rPinky2
                    {
                      OFFSET -3.1477 -1.685 0.8462
                      CHANNELS 6 Xposition Yposition Zposition Zrotation Xrotation Yrotation
                      JOINT rPinky2_End
                      {
                        OFFSET -0.8055 -1.585 0.7955
                        CHANNELS 6 Xposition Yposition Zposition Zrotation Xrotation Yrotation
                        End Site
                        {
                          OFFSET -0.0081 -0.0158 0.008
                        }
                      }
                    }
                  }
                }
              }
            }
          }
        }
      }
    }
  }
  JOINT lThigh
  {
    OFFSET 8.367 -8.2066 0.5982
    CHANNELS 6 Xposition Yposition Zposition Zrotation Xrotation Yrotation
    JOINT lShin
    {
      OFFSET 2.1923 -43.463 -0.4932
      CHANNELS 6 Xposition Yposition Zposition Zrotation Xrotation Yrotation
      JOINT lFoot
      {
        OFFSET 0.7333 -45.8593 -2.6451
        CHANNELS 6 Xposition Yposition Zposition Zrotation Xrotation Yrotation
        End Site
        {
          OFFSET 2.6618 -4.2699 12.3931
        }
      }
    }
  }
  JOINT rThigh
  {
    OFFSET -8.367 -8.2066 0.5982
    CHANNELS 6 Xposition Yposition Zposition Zrotation Xrotation Yrotation
    JOINT rShin
    {
      OFFSET -2.1923 -43.463 -0.4931
      CHANNELS 6 Xposition Yposition Zposition Zrotation Xrotation Yrotation
      JOINT rFoot
      {
        OFFSET -0.7333 -45.8593 -2.6451
        CHANNELS 6 Xposition Yposition Zposition Zrotation Xrotation Yrotation
        End Site
        {
          OFFSET -2.6618 -4.2699 12.3931
        }
      }
    }
  }
}
MOTION
Frames:	4
Frame Time:	0.0333333
0 90.174 2.4664 0 0 -0 0 -1.186 -1.5018 0 0 -0 0 9.964 0.2134 0 0 -0 0 13.134 -3.2573 0 0 -0 0 20.686 -1.6905 0 0 -0 0 7.238 -0.1237 0 0 -0 1.7069 20.075 5.0056 0 0 -0 13.6458 -0.047 -4.849 1.66051 0.0835086 5.75766 28.3255 -0.9759 2.2888 -0.0175111 0.895433 15.7816 22.1583 -0.53 10.8316 7.95139e-016 -1.98785e-016 -0 0.786 0.112 2.5817 5.46658e-016 -3.97569e-016 -0 0.3601 -0.878 4.2331 5.96354e-016 0 -0 1.8127 -1.216 2.2227 3.97569e-016 1.98785e-016 9.54166e-015 0.9571 1.114 1.7695 1.49089e-016 -3.97569e-016 -0 4.1246 0.487 4.1451 6.4605e-016 0 3.18055e-015 3.4052 -1.454 2.7682 5.96354e-016 0 3.18055e-015 1.4531 -1.795 1.2713 8.94531e-016 -1.98785e-016 6.36111e-015 5.6954 0.21 2.1184 6.4605e-016 0 3.18055e-015 3.9766 -1.54 2.3863 5.96354e-016 0 3.18055e-015 1.4042 -1.926 1.125 8.94531e-016 -1.98785e-016 6.36111e-015 2.0956 0.66 -0.3894 1.49089e-016 -3.97569e-016 -0 5.0395 -0.09 2.4971 6.4605e-016 0 3.18055e-015 3.7921 -1.552 1.4806 5.96354e-016 0 3.18055e-015 1.4655 -1.808 0.9609 8.94531e-016 -1.98785e-016 6.36111e-015 4.9141 -1.269 0.3591 6.4605e-016 0 3.18055e-015 3.1477 -1.685 0.8462 5.96354e-016 0 3.18055e-015 0.8055 -1.585 0.7955 8.94531e-016 -1.98785e-016 6.36111e-015 -1.7069 20.075 5.0056 0 0 -0 -13.6458 -0.047 -4.849 -1.4496 0.0636048 -5.0245 -28.3255 -0.9759 2.2888 -1.74811 1.20616 -16.8394 -22.1583 -0.53 10.8316 -1.19271e-015 1.98785e-016 -3.18055e-015 -0.786 0.112 2.5817 -3.97569e-016 1.98785e-016 -3.18055e-015 -0.3601 -0.878 4.2331 -2.98177e-016 1.98785e-016 -3.18055e-015 -1.8127 -1.216 2.2227 -2.98177e-016 3.97569e-016 -0 -0.9571 1.114 1.7695 4.96962e-016 0 -6.36111e-015 -4.1246 0.487 4.1451 -9.93923e-017 3.97569e-016 -0 -3.4052 -1.454 2.7682 -8.94531e-016 5.96354e-016 -0 -1.4531 -1.795 1.2713 -3.97569e-016 3.97569e-016 -0 -5.6954 0.21 2.1184 -9.93923e-017 3.97569e-016 -0 -3.9766 -1.54 2.3863 -8.94531e-016 5.96354e-016 -0 -1.4042 -1.926 1.125 -3.97569e-016 3.97569e-016 -0 -2.0956 0.66 -0.3894 4.96962e-016 0 -6.36111e-015 -5.0395 -0.09 2.4971 -9.93923e-017 3.97569e-016 -0 -3.7921 -1.552 1.4806 -8.94531e-016 5.96354e-016 -0 -1.4655 -1.808 0.9609 -3.97569e-016 3.97569e-016 -0 -4.9141 -1.269 0.3592 -9.93923e-017 3.97569e-016 -0 -3.1477 -1.685 0.8462 -8.94531e-016 5.96354e-016 -0 -0.8055 -1.585 0.7955 -3.97569e-016 3.97569e-016 -0 8.367 -8.2066 0.5982 -4.66115 -1.03232 0.120763 2.1923 -43.463 -0.4932 0.00990601 1.55097 0.177175 0.7333 -45.8593 -2.6451 4.65196 -0.54114 -0.255042 -8.367 -8.2066 0.5982 4.66115 -1.03222 -0.120763 -2.1923 -43.463 -0.4931 -0.00990459 1.5509 -0.177176 -0.7333 -45.8593 -2.6451 -4.65196 -0.541171 0.255041 
6.25369 37.2421 46.7969 -43.5814 -33.0364 119.809 0 -1.186 -1.5018 -0.212862 1.83764 -0.0773011 0 9.964 0.2134 -0.423575 3.67553 -0.147845 0 13.134 -3.2573 -0.423572 3.67554 -0.147846 0 20.686 -1.6905 9.96875e-005 -17.8195 6.45367e-005 0 7.238 -0.1237 -0.0449964 -23.2548 -0.0240612 1.7069 20.075 5.0056 19.7426 6.69878 -4.81137 13.6458 -0.047 -4.849 -17.25 -41.8092 -19.9068 28.3255 -0.9759 2.2888 -9.0436 -4.26964 -78.4557 22.1583 -0.53 10.8316 9.94331 4.53842 -4.78006 0.786 0.112 2.5817 1.15543e-006 -5.12951e-007 1.60241e-007 0.3601 -0.878 4.2331 -4.77083e-015 1.59028e-015 6.36111e-015 1.8127 -1.216 2.2227 4.69203e-007 6.49426e-008 -3.83529e-007 0.9571 1.114 1.7695 1.59028e-015 1.59028e-015 -3.18055e-015 4.1246 0.487 4.1451 1.15543e-006 -5.12951e-007 1.60241e-007 3.4052 -1.454 2.7682 -1.59028e-015 1.59028e-015 6.36111e-015 1.4531 -1.795 1.2713 4.69203e-007 6.49426e-008 -3.83529e-007 5.6954 0.21 2.1184 1.15543e-006 -5.12951e-007 1.60241e-007 3.9766 -1.54 2.3863 -1.59028e-015 1.59028e-015 6.36111e-015 1.4042 -1.926 1.125 4.69203e-007 6.49426e-008 -3.83529e-007 2.0956 0.66 -0.3894 1.59028e-015 1.59028e-015 -3.18055e-015 5.0395 -0.09 2.4971 1.15543e-006 -5.12951e-007 1.60241e-007 3.7921 -1.552 1.4806 -1.59028e-015 1.59028e-015 6.36111e-015 1.4655 -1.808 0.9609 4.69203e-007 6.49426e-008 -3.83529e-007 4.9141 -1.269 0.3591 1.15543e-006 -5.12951e-007 1.60241e-007 3.1477 -1.685 0.8462 -1.59028e-015 1.59028e-015 6.36111e-015 0.8055 -1.585 0.7955 4.69203e-007 6.49426e-008 -3.83529e-007 -1.7069 20.075 5.0056 -19.9281 6.72188 4.95754 -13.6458 -0.047 -4.849 20.5935 -40.5666 25.511 -28.3255 -0.9759 2.2888 8.60191 -5.97784 77.3412 -22.1583 -0.53 10.8316 -16.184 -6.65322 4.0509 -0.786 0.112 2.5817 -1.59028e-015 -2.38542e-015 -6.36111e-015 -0.3601 -0.878 4.2331 -7.95139e-016 2.38542e-015 -0 -1.8127 -1.216 2.2227 -2.38542e-015 5.56597e-015 3.18055e-015 -0.9571 1.114 1.7695 -1.76556e-031 -1.59028e-015 -6.36111e-015 -4.1246 0.487 4.1451 2.38542e-015 -7.95139e-016 9.54166e-015 -3.4052 -1.454 2.7682 -5.29669e-031 4.77083e-015 6.36111e-015 -1.4531 -1.795 1.2713 -7.95139e-016 -3.18055e-015 -0 -5.6954 0.21 2.1184 2.38542e-015 -7.95139e-016 9.54166e-015 -3.9766 -1.54 2.3863 -5.29669e-031 4.77083e-015 6.36111e-015 -1.4042 -1.926 1.125 -7.95139e-016 -3.18055e-015 -0 -2.0956 0.66 -0.3894 -1.76556e-031 -1.59028e-015 -6.36111e-015 -5.0395 -0.09 2.4971 2.38542e-015 -7.95139e-016 9.54166e-015 -3.7921 -1.552 1.4806 -5.29669e-031 4.77083e-015 6.36111e-015 -1.4655 -1.808 0.9609 -7.95139e-016 -3.18055e-015 -0 -4.9141 -1.269 0.3592 2.38542e-015 -7.95139e-016 9.54166e-015 -3.1477 -1.685 0.8462 -5.29669e-031 4.77083e-015 6.36111e-015 -0.8055 -1.585 0.7955 -7.95139e-016 -3.18055e-015 -0 8.367 -8.2066 0.5982 72.8898 -44.5474 69.9596 2.1923 -43.463 -0.4932 -172.313 81.9439 177.55 0.7333 -45.8593 -2.6451 9.38942 18.568 2.17017 -8.367 -8.2066 0.5982 -72.891 -44.547 -69.9633 -2.1923 -43.463 -0.4931 172.437 81.9452 -177.674 -0.7333 -45.8593 -2.6451 -9.39574 18.5684 -2.16081 
-1.85893 11.8901 68.5163 43.3442 -70.9564 -135.04 0 -1.186 -1.5018 -0.337204 2.64405 -0.104185 0 9.964 0.2134 -0.670714 5.28868 -0.19307 0 13.134 -3.2573 -0.67071 5.28865 -0.193072 0 20.686 -1.6905 -0.000197795 -25.6547 -7.88254e-005 3.55271e-015 7.238 -0.1237 -0.0726822 -33.5363 -0.0382672 1.7069 20.075 5.0056 28.9308 9.83149 -7.18343 13.6458 -0.047 -4.849 -44.6529 -53.3427 -44.9047 28.3255 -0.9759 2.2888 -28.5026 -37.6276 -107.631 22.1583 -0.53 10.8316 14.7471 6.47998 -7.0018 0.786 0.112 2.5817 -2.20077e-006 2.19889e-006 5.90727e-007 0.3601 -0.878 4.2331 1.02072e-031 -7.35503e-015 7.95139e-016 1.8127 -1.216 2.2227 -1.01744e-006 3.56872e-007 5.68036e-006 0.9571 1.114 1.7695 -6.36111e-015 -1.23246e-014 2.38542e-015 4.1246 0.487 4.1451 -2.20077e-006 2.19889e-006 5.90727e-007 3.4052 -1.454 2.7682 1.59028e-015 -3.97569e-015 7.95139e-016 1.4531 -1.795 1.2713 -1.01744e-006 3.56872e-007 5.68036e-006 5.6954 0.21 2.1184 -2.20077e-006 2.19889e-006 5.90727e-007 3.9766 -1.54 2.3863 1.59028e-015 -3.97569e-015 7.95139e-016 1.4042 -1.926 1.125 -1.01744e-006 3.56872e-007 5.68036e-006 2.0956 0.66 -0.3894 -6.36111e-015 -1.23246e-014 2.38542e-015 5.0395 -0.09 2.4971 -2.20077e-006 2.19889e-006 5.90727e-007 3.7921 -1.552 1.4806 1.59028e-015 -3.97569e-015 7.95139e-016 1.4655 -1.808 0.9609 -1.01744e-006 3.56872e-007 5.68036e-006 4.9141 -1.269 0.3591 -2.20077e-006 2.19889e-006 5.90727e-007 3.1477 -1.685 0.8462 1.59028e-015 -3.97569e-015 7.95139e-016 0.8055 -1.585 0.7955 -1.01744e-006 3.56872e-007 5.68036e-006 -1.7069 20.075 5.0056 -29.2251 9.86071 7.4069 -13.6458 -0.047 -4.849 49.5278 -49.3713 51.7055 -28.3255 -0.9759 2.2888 28.5742 -39.6124 106.738 -22.1583 -0.53 10.8316 -23.5235 -9.41902 5.42616 -0.786 0.112 2.5817 -1.57201e-006 2.32695e-006 1.54866e-006 -0.3601 -0.878 4.2331 1.57201e-006 -2.32695e-006 -1.54866e-006 -1.8127 -1.216 2.2227 -1.57201e-006 2.32695e-006 1.54866e-006 -0.9571 1.114 1.7695 3.97569e-016 5.96354e-015 3.18055e-015 -4.1246 0.487 4.1451 -1.57201e-006 2.32695e-006 1.54866e-006 -3.4052 -1.454 2.7682 1.57201e-006 -2.32695e-006 -1.54866e-006 -1.4531 -1.795 1.2713 -1.57201e-006 2.32695e-006 1.54866e-006 -5.6954 0.21 2.1184 -1.57201e-006 2.32695e-006 1.54866e-006 -3.9766 -1.54 2.3863 1.57201e-006 -2.32695e-006 -1.54866e-006 -1.4042 -1.926 1.125 -1.57201e-006 2.32695e-006 1.54866e-006 -2.0956 0.66 -0.3894 3.97569e-016 5.96354e-015 3.18055e-015 -5.0395 -0.09 2.4971 -1.57201e-006 2.32695e-006 1.54866e-006 -3.7921 -1.552 1.4806 1.57201e-006 -2.32695e-006 -1.54866e-006 -1.4655 -1.808 0.9609 -1.57201e-006 2.32695e-006 1.54866e-006 -4.9141 -1.269 0.3592 -1.57201e-006 2.32695e-006 1.54866e-006 -3.1477 -1.685 0.8462 1.57201e-006 -2.32695e-006 -1.54866e-006 -0.8055 -1.585 0.7955 -1.57201e-006 2.32695e-006 1.54866e-006 8.367 -8.2066 0.5982 126.109 -29.2246 110.212 2.1923 -43.463 -0.4932 -178.354 38.5732 -170.423 0.7333 -45.8593 -2.6451 10.731 29.5698 6.24539 -8.367 -8.2066 0.5982 -126.111 -29.2229 -110.217 -2.1923 -43.463 -0.4931 178.376 38.5724 170.389 -0.7333 -45.8593 -2.6451 -10.7426 29.5723 -6.23102 
-0.000342998 17.4421 62.4879 -0.0131249 -71.0095 179.991 0 -1.186 -1.5018 -0.308122 2.41958 -0.0999252 0 9.964 0.2134 -0.612838 4.83961 -0.187062 0 13.134 -3.2573 -0.612838 4.83965 -0.187062 1.11022e-016 20.686 -1.6905 -3.69581e-005 -23.5059 -1.45603e-005 0 7.238 -0.1237 -0.0656857 -30.8444 -0.0342456 1.7069 20.075 5.0056 26.7114 9.48711 -6.99276 13.6458 -0.047 -4.849 -37.2122 -51.6116 -38.2522 28.3255 -0.9759 2.2888 -22.1208 -29.5656 -101.174 22.1583 -0.53 10.8316 13.5759 6.21648 -6.78013 0.786 0.112 2.5817 3.53857e-006 -5.6824e-007 -1.1982e-006 0.3601 -0.878 4.2331 5.20712e-006 -3.74004e-006 -1.48004e-006 1.8127 -1.216 2.2227 3.53857e-006 -5.6824e-007 -1.1982e-006 0.9571 1.114 1.7695 -7.95139e-016 -2.5842e-015 -0 4.1246 0.487 4.1451 3.53857e-006 -5.6824e-007 -1.1982e-006 3.4052 -1.454 2.7682 5.20712e-006 -3.74004e-006 -1.48004e-006 1.4531 -1.795 1.2713 3.53857e-006 -5.6824e-007 -1.1982e-006 5.6954 0.21 2.1184 3.53857e-006 -5.6824e-007 -1.1982e-006 3.9766 -1.54 2.3863 5.20712e-006 -3.74004e-006 -1.48004e-006 1.4042 -1.926 1.125 3.53857e-006 -5.6824e-007 -1.1982e-006 2.0956 0.66 -0.3894 -7.95139e-016 -2.5842e-015 -0 5.0395 -0.09 2.4971 3.53857e-006 -5.6824e-007 -1.1982e-006 3.7921 -1.552 1.4806 5.20712e-006 -3.74004e-006 -1.48004e-006 1.4655 -1.808 0.9609 3.53857e-006 -5.6824e-007 -1.1982e-006 4.9141 -1.269 0.3591 3.53857e-006 -5.6824e-007 -1.1982e-006 3.1477 -1.685 0.8462 5.20712e-006 -3.74004e-006 -1.48004e-006 0.8055 -1.585 0.7955 3.53857e-006 -5.6824e-007 -1.1982e-006 -1.7069 20.075 5.0056 -27.0089 9.51126 7.22014 -13.6458 -0.047 -4.849 42.0355 -48.5231 44.9212 -28.3255 -0.9759 2.2888 22.0439 -31.4965 100.143 -22.1583 -0.53 10.8316 -21.7503 -8.70025 5.4443 -0.786 0.112 2.5817 2.35736e-006 1.79928e-006 -9.86838e-007 -0.3601 -0.878 4.2331 -1.97368e-006 2.75279e-006 -4.71473e-006 -1.8127 -1.216 2.2227 8.87137e-006 3.04046e-006 -4.33691e-006 -0.9571 1.114 1.7695 -3.97569e-016 -1.09332e-015 -6.36111e-015 -4.1246 0.487 4.1451 2.35736e-006 1.79928e-006 -9.86838e-007 -3.4052 -1.454 2.7682 -1.97368e-006 2.75279e-006 -4.71473e-006 -1.4531 -1.795 1.2713 8.87137e-006 3.04046e-006 -4.33691e-006 -5.6954 0.21 2.1184 2.35736e-006 1.79928e-006 -9.86838e-007 -3.9766 -1.54 2.3863 -1.97368e-006 2.75279e-006 -4.71473e-006 -1.4042 -1.926 1.125 8.87137e-006 3.04046e-006 -4.33691e-006 -2.0956 0.66 -0.3894 -3.97569e-016 -1.09332e-015 -6.36111e-015 -5.0395 -0.09 2.4971 2.35736e-006 1.79928e-006 -9.86838e-007 -3.7921 -1.552 1.4806 -1.97368e-006 2.75279e-006 -4.71473e-006 -1.4655 -1.808 0.9609 8.87137e-006 3.04046e-006 -4.33691e-006 -4.9141 -1.269 0.3592 2.35736e-006 1.79928e-006 -9.86838e-007 -3.1477 -1.685 0.8462 -1.97368e-006 2.75279e-006 -4.71473e-006 -0.8055 -1.585 0.7955 8.87137e-006 3.04046e-006 -4.33691e-006 8.367 -8.2066 0.5982 114.821 -34.5729 101.492 2.1923 -43.463 -0.4932 -177.842 48.1461 -173.232 0.7333 -45.8593 -2.6451 10.362 26.3812 4.70045 -8.367 -8.2066 0.5982 -114.822 -34.5702 -101.496 -2.1923 -43.463 -0.4931 177.87 48.1457 173.195 -0.7333 -45.8593 -2.6451 -10.3723 26.3831 -4.68727 
